PathFileType	4	(X/Y/Z)	D:\TRACE\v60_Jaco2_6-2-23\BothDRS_Motion2_10-platform.trc
DataRate	CameraRate	NumFrames	NumMarkers	Units	OrigDataRate	OrigDataStartFrame	OrigNumFrames
100.00	100.00	      44	5	mm	100.00	1	      7500
Frame#	Time	Left_Front			Right_Front			Left_Aft			Right_Aft			Post			
		X1	Y1	Z1	X2	Y2	Z2	X3	Y3	Z3	X4	Y4	Z4	X5	Y5	Z5	

1	0.000	-800.53772	9.10382	-638.80157	769.37708	10.29488	-644.33844	-708.39850	7.62338	496.30789	733.57483	7.21013	505.75482	-14.51881	1308.06689	-962.14844	
2	0.010	-800.56573	9.14077	-638.76031	769.42535	10.27642	-644.31622	-708.39636	7.67528	496.31067	733.60516	7.22352	505.76361	-14.53870	1308.09180	-962.14020	
3	0.020	-800.56891	9.09671	-638.73926	769.39893	10.29377	-644.32666	-708.42377	7.64566	496.29388	733.56244	7.20572	505.76779	-14.51393	1308.06836	-962.13239	
4	0.030	-800.60217	9.06118	-638.72913	769.44806	10.29269	-644.30585	-708.39197	7.60249	496.32718	733.60620	7.20531	505.75909	-14.51711	1308.04993	-962.14868	
5	0.040	-800.62006	9.09648	-638.71918	769.44592	10.30052	-644.29742	-708.36334	7.65196	496.32108	733.62384	7.24777	505.75845	-14.49483	1308.05420	-962.12488	
6	0.050	-800.58722	9.08595	-638.73541	769.45123	10.28798	-644.28540	-708.34393	7.61232	496.30692	733.62299	7.21224	505.75708	-14.48339	1308.07007	-962.12830	
7	0.060	-800.53662	9.09019	-638.77136	769.47064	10.29469	-644.29761	-708.37122	7.63074	496.28711	733.59845	7.21301	505.75354	-14.53558	1308.07861	-962.12225	
8	0.070	-800.58856	9.10056	-638.77814	769.38007	10.27881	-644.31500	-708.36072	7.59347	496.29187	733.57434	7.19463	505.75647	-14.54772	1308.05994	-962.09845	
9	0.080	-800.59741	9.08387	-638.70905	769.35297	10.29265	-644.31799	-708.40009	7.61025	496.30280	733.59546	7.21593	505.77634	-14.51385	1308.06104	-962.10400	
10	0.090	-800.58801	9.11562	-638.76031	769.42426	10.27846	-644.33582	-708.35321	7.59326	496.33359	733.58893	7.22028	505.75500	-14.47697	1308.06628	-962.12268	
11	0.100	-800.62439	9.03982	-638.73383	769.34979	10.31071	-644.32574	-708.37445	7.62512	496.32373	733.58740	7.22091	505.76233	-14.56485	1308.05554	-962.12549	
12	0.110	-800.55597	9.07274	-638.78815	769.37604	10.30791	-644.32721	-708.36334	7.60478	496.32031	733.58862	7.20387	505.75522	-14.49158	1308.06409	-962.12769	
13	0.120	-800.55487	9.10320	-638.73975	769.38818	10.30483	-644.29688	-708.33405	7.59490	496.32660	733.58295	7.20401	505.77048	-14.51749	1308.06482	-962.08759	
14	0.130	-800.56628	9.05445	-638.74146	769.43713	10.27245	-644.27338	-708.38373	7.60157	496.28842	733.59998	7.20427	505.76071	-14.49491	1308.04797	-962.11462	
15	0.140	-800.57422	9.08570	-638.72003	769.36267	10.32754	-644.29108	-708.37036	7.58670	496.30624	733.61890	7.21270	505.74338	-14.53656	1308.07910	-962.11682	
16	0.150	-800.57727	9.12458	-638.75409	769.38690	10.26448	-644.31744	-708.39551	7.62662	496.28052	733.58887	7.21296	505.75986	-14.48178	1308.05212	-962.13757	
17	0.160	-800.60626	9.09144	-638.69324	769.37000	10.29026	-644.29987	-708.40253	7.63326	496.31812	733.55115	7.20018	505.76614	-14.52274	1308.06177	-962.11554	
18	0.170	-800.55884	9.07529	-638.77905	769.45172	10.29861	-644.30005	-708.39624	7.60649	496.29156	733.58826	7.19308	505.73981	-14.52205	1308.08813	-962.05811	
19	0.180	-800.57727	9.07603	-638.79449	769.45984	10.27283	-644.27130	-708.38013	7.60660	496.31619	733.57690	7.20402	505.77362	-14.56103	1308.06604	-962.11035	
20	0.190	-800.61279	9.13700	-638.69891	769.44220	10.29771	-644.30420	-708.36920	7.62442	496.26126	733.60657	7.20364	505.72971	-14.55106	1308.08008	-962.12561	
21	0.200	-800.59637	9.13422	-638.74127	769.33606	10.29590	-644.35101	-708.35480	7.61313	496.32162	733.62891	7.20700	505.75592	-14.51461	1308.07312	-962.09766	
22	0.210	-800.60925	9.08102	-638.73395	769.34937	10.29039	-644.33673	-708.38715	7.61280	496.26865	733.56744	7.20387	505.76221	-14.46534	1308.06555	-962.11456	
23	0.220	-800.60229	9.05799	-638.80884	769.37524	10.31883	-644.30328	-708.39197	7.63556	496.29099	733.55927	7.18409	505.76517	-14.55582	1308.07886	-962.13257	
24	0.230	-800.53558	9.10556	-638.77203	769.50446	10.30224	-644.23444	-708.41260	7.65320	496.29218	733.64435	7.24481	505.76334	-14.45205	1308.05115	-962.13293	
25	0.240	-800.59467	9.11735	-638.73517	769.45862	10.28798	-644.28973	-708.43811	7.64080	496.29959	733.57336	7.21410	505.76196	-14.51972	1308.06714	-962.12970	
26	0.250	-800.60004	9.14122	-638.71832	769.46307	10.29866	-644.29407	-708.33862	7.62322	496.28830	733.63599	7.25112	505.76199	-14.45816	1308.05066	-962.15155	
27	0.260	-800.58942	9.08290	-638.73560	769.44403	10.29333	-644.26111	-708.36365	7.62563	496.31021	733.61603	7.22625	505.76385	-14.53692	1308.06262	-962.10754	
28	0.270	-800.62616	9.08754	-638.70905	769.45386	10.26508	-644.28845	-708.35553	7.59633	496.30411	733.60718	7.23408	505.76169	-14.52516	1308.06812	-962.14124	
29	0.280	-800.57361	9.09130	-638.72949	769.43439	10.26280	-644.27551	-708.33514	7.56965	496.35294	733.61597	7.22334	505.77985	-14.55264	1308.05908	-962.10760	
30	0.290	-800.64911	9.09486	-638.72821	769.31622	10.28024	-644.33441	-708.38483	7.58251	496.32733	733.55481	7.20171	505.77209	-14.44644	1308.04675	-962.10950	
31	0.300	-800.61920	9.06954	-638.70093	769.45129	10.27798	-644.28754	-708.38220	7.59728	496.34265	733.56683	7.20721	505.75940	-14.44159	1308.05078	-962.12286	
32	0.310	-800.59131	9.08562	-638.77271	769.44647	10.27301	-644.30627	-708.36548	7.64384	496.30081	733.59583	7.24368	505.77017	-14.52922	1308.07312	-962.14563	
33	0.320	-800.57776	9.06259	-638.72101	769.35278	10.31539	-644.30255	-708.39008	7.61655	496.31042	733.61383	7.22867	505.76700	-14.57492	1308.05896	-962.09882	
34	0.330	-800.55859	9.05236	-638.78943	769.47009	10.28995	-644.25885	-708.36407	7.60640	496.28375	733.57172	7.18845	505.75775	-14.51756	1308.06677	-962.08655	
35	0.340	-800.61243	9.03905	-638.74872	769.41870	10.28265	-644.28339	-708.34399	7.57059	496.37347	733.60297	7.21502	505.75461	-14.50465	1308.05969	-962.12506	
36	0.350	-800.61444	9.09914	-638.72522	769.39313	10.25485	-644.30933	-708.37866	7.59634	496.30856	733.60101	7.21751	505.77240	-14.55067	1308.07239	-962.12329	
37	0.360	-800.55756	9.09472	-638.79395	769.42462	10.27289	-644.31836	-708.35565	7.62838	496.29861	733.59760	7.21372	505.75714	-14.55967	1308.08716	-962.09808	
38	0.370	-800.54358	9.09328	-638.77240	769.31238	10.33235	-644.35016	-708.39325	7.61053	496.31244	733.60083	7.22174	505.76895	-14.50015	1308.07935	-962.14832	
39	0.380	-800.54156	9.10655	-638.81384	769.39276	10.29269	-644.33258	-708.40997	7.66925	496.30753	733.59161	7.21907	505.74744	-14.53521	1308.10327	-962.13300	
40	0.390	-800.59131	9.11265	-638.73242	769.36481	10.29958	-644.35474	-708.35419	7.62959	496.31952	733.59827	7.19510	505.76062	-14.52215	1308.04761	-962.11481	
41	0.400	-800.61151	9.09555	-638.71161	769.42334	10.28210	-644.32117	-708.37341	7.59231	496.33823	733.56415	7.20946	505.74661	-14.52030	1308.09729	-962.10168	
42	0.410	-800.58990	9.08152	-638.76074	769.35870	10.27642	-644.32751	-708.39661	7.60226	496.26682	733.57715	7.21178	505.78384	-14.59855	1308.10071	-962.09357	
43	0.420	-800.53949	9.14842	-638.75287	769.46698	10.28481	-644.27972	-708.34595	7.59917	496.30569	733.59784	7.22449	505.75330	-14.49966	1308.07104	-962.10754	
44	0.430	-800.56335	9.06748	-638.80249	769.42053	10.32026	-644.31812	-708.36682	7.62043	496.30878	733.60156	7.25361	505.75519	-14.54202	1308.06702	-962.08466	
